<?xml version="1.0" standalone="no"?>
<!DOCTYPE svg PUBLIC "-//W3C//DTD SVG 20010904//EN"
 "http://www.w3.org/TR/2001/REC-SVG-20010904/DTD/svg10.dtd">
<svg version="1.0" xmlns="http://www.w3.org/2000/svg"
 width="70.000000pt" height="70.000000pt" viewBox="0 0 70.000000 70.000000"
 preserveAspectRatio="xMidYMid meet">
<metadata>
Created by potrace 1.14, written by Peter Selinger 2001-2017
</metadata>
<g transform="translate(0.000000,70.000000) scale(0.100000,-0.100000)"
fill="#000000" stroke="none">
<path d="M0 350 l0 -350 350 0 350 0 0 350 0 350 -350 0 -350 0 0 -350z m386
166 c8 -8 14 -19 14 -25 0 -6 5 -11 11 -11 6 0 24 -13 40 -29 29 -29 29 -30
29 -155 l0 -126 -25 0 c-23 0 -25 3 -25 50 l0 50 -80 0 -80 0 0 -50 c0 -47 -2
-50 -25 -50 l-25 0 0 126 c0 125 0 126 29 155 16 16 34 29 40 29 6 0 11 5 11
10 0 35 59 52 86 26z"/>
<path d="M313 435 c-7 -8 -13 -19 -13 -25 0 -5 -7 -10 -15 -10 -11 0 -15 -11
-15 -40 l0 -40 80 0 80 0 0 40 c0 29 -4 40 -15 40 -8 0 -15 5 -15 11 0 34 -63
52 -87 24z"/>
</g>
</svg>
